<svg xmlns="http://www.w3.org/2000/svg" xmlns:xlink="http://www.w3.org/1999/xlink" width="380" zoomAndPan="magnify" viewBox="0 0 285 250.499992" height="334" preserveAspectRatio="xMidYMid meet" version="1.0"><defs><clipPath id="6ab26372b4"><path d="M 0.285156 0 L 284.714844 0 L 284.714844 250 L 0.285156 250 Z M 0.285156 0 " clip-rule="nonzero"/></clipPath><clipPath id="e348f50130"><path d="M 0.285156 0 L 282.503906 0 L 282.503906 249.65625 L 0.285156 249.65625 Z M 0.285156 0 " clip-rule="nonzero"/></clipPath><clipPath id="b944076a7d"><path d="M 84.90625 120.179688 L 199.65625 120.179688 L 199.65625 234.929688 L 84.90625 234.929688 Z M 84.90625 120.179688 " clip-rule="nonzero"/></clipPath><clipPath id="aa5f9146f4"><path d="M 142.28125 120.179688 C 110.59375 120.179688 84.90625 145.867188 84.90625 177.554688 C 84.90625 209.242188 110.59375 234.929688 142.28125 234.929688 C 173.96875 234.929688 199.65625 209.242188 199.65625 177.554688 C 199.65625 145.867188 173.96875 120.179688 142.28125 120.179688 Z M 142.28125 120.179688 " clip-rule="nonzero"/></clipPath><clipPath id="e9de04497c"><path d="M 0.90625 0.179688 L 115.65625 0.179688 L 115.65625 114.929688 L 0.90625 114.929688 Z M 0.90625 0.179688 " clip-rule="nonzero"/></clipPath><clipPath id="ee34e47617"><path d="M 58.28125 0.179688 C 26.59375 0.179688 0.90625 25.867188 0.90625 57.554688 C 0.90625 89.242188 26.59375 114.929688 58.28125 114.929688 C 89.96875 114.929688 115.65625 89.242188 115.65625 57.554688 C 115.65625 25.867188 89.96875 0.179688 58.28125 0.179688 Z M 58.28125 0.179688 " clip-rule="nonzero"/></clipPath><clipPath id="562d1963a1"><rect x="0" width="116" y="0" height="115"/></clipPath><clipPath id="17a0ecdacc"><path d="M 106.222656 131.90625 L 176.777344 131.90625 L 176.777344 235 L 106.222656 235 Z M 106.222656 131.90625 " clip-rule="nonzero"/></clipPath><clipPath id="2e7c2e4ae5"><rect x="0" width="285" y="0" height="250"/></clipPath></defs><g clip-path="url(#6ab26372b4)"><path fill="#ffffff" d="M 0.285156 0 L 284.714844 0 L 284.714844 250 L 0.285156 250 Z M 0.285156 0 " fill-opacity="1" fill-rule="nonzero"/><g><g clip-path="url(#2e7c2e4ae5)"><g clip-path="url(#e348f50130)"><path fill="#e7680d" d="M 141.925781 0.34375 C 140.730469 0.484375 139.621094 1.023438 138.773438 1.878906 L 2.386719 138.269531 C 0.324219 140.347656 0.34375 143.710938 2.425781 145.769531 C 3.414062 146.746094 4.746094 147.296875 6.136719 147.304688 L 34.949219 147.304688 L 34.949219 244.308594 C 34.957031 247.222656 37.316406 249.582031 40.234375 249.59375 L 244.820312 249.59375 C 247.730469 249.582031 250.09375 247.222656 250.105469 244.308594 L 250.105469 147.304688 L 278.914062 147.304688 C 281.84375 147.292969 284.210938 144.910156 284.199219 141.980469 C 284.195312 140.589844 283.644531 139.257812 282.667969 138.269531 L 249.421875 105.023438 L 249.421875 59.503906 C 249.414062 56.589844 247.050781 54.230469 244.136719 54.21875 L 221.632812 54.21875 C 218.71875 54.230469 216.359375 56.589844 216.347656 59.503906 L 216.347656 71.949219 L 146.277344 1.878906 C 145.136719 0.730469 143.535156 0.164062 141.925781 0.34375 Z M 141.925781 0.34375 " fill-opacity="1" fill-rule="nonzero"/></g><g clip-path="url(#b944076a7d)"><g clip-path="url(#aa5f9146f4)"><g transform="matrix(1, 0, 0, 1, 84, 120)"><g clip-path="url(#562d1963a1)"><g clip-path="url(#e9de04497c)"><g clip-path="url(#ee34e47617)"><path fill="#ffffff" d="M 0.90625 0.179688 L 115.65625 0.179688 L 115.65625 114.929688 L 0.90625 114.929688 Z M 0.90625 0.179688 " fill-opacity="1" fill-rule="nonzero"/></g></g></g></g></g></g><g clip-path="url(#17a0ecdacc)"><path fill="#e7680d" d="M 142.261719 131.90625 C 122.367188 131.90625 106.230469 148.042969 106.230469 167.9375 C 106.230469 194.960938 142.261719 234.855469 142.261719 234.855469 C 142.261719 234.855469 178.292969 194.960938 178.292969 167.9375 C 178.292969 148.042969 162.15625 131.90625 142.261719 131.90625 Z M 142.261719 180.804688 C 135.160156 180.804688 129.394531 175.042969 129.394531 167.9375 C 129.394531 160.835938 135.160156 155.070312 142.261719 155.070312 C 149.367188 155.070312 155.128906 160.835938 155.128906 167.9375 C 155.128906 175.042969 149.367188 180.804688 142.261719 180.804688 Z M 142.261719 180.804688 " fill-opacity="1" fill-rule="nonzero"/></g></g></g></g></svg>